<svg version="1.1"
     baseProfile="full"
     width="700" height="120"
     xmlns="http://www.w3.org/2000/svg">
    <style>
    rect {
        fill: rgba(0, 0, 0, 0);
        stroke: black;
        stroke-width: 3;
        width: 50px;
        height: 50px;
    }
    .filled {
        fill: #04f;
    }
    .empty {
        stroke: #aaa;
    }
    text { font-family: sans-serif; }
    </style>
    <rect width="50" height="50" class="empty" x="353" y="3" />
    <rect width="50" height="50" class="empty" x="403" y="3" />
    <rect width="50" height="50" class="empty" x="453" y="3" />
    <rect width="50" height="50" class="empty" x="503" y="3" />
    <rect width="50" height="50" class="empty" x="553" y="3" />
    <rect width="50" height="50" class="filled" x="3" y="3" />
    <rect width="50" height="50" class="filled" x="53" y="3" />
    <rect width="50" height="50" class="filled" x="103" y="3" />
    <rect width="50" height="50" class="filled" x="153" y="3" />
    <rect width="50" height="50" class="filled" x="203" y="3" />
    <rect width="50" height="50" class="filled" x="253" y="3" />
    <rect width="50" height="50" class="filled" x="303" y="3" />

    <g transform="translate(3, 90)">
        <line x1="0" y1="0" x2="0" y2="20" style="stroke: #aaa; stroke-width: 3;" />
        <line x1="600" y1="0" x2="600" y2="20" style="stroke: #aaa; stroke-width: 3;" />
        <line x1="0" y1="10" x2="600" y2="10" style="stroke: #aaa; stroke-width: 3;" />
    </g>

    <g transform="translate(3, 60)">
        <line x1="0" y1="0" x2="0" y2="20" style="stroke: #000; stroke-width: 3;" />
        <line x1="350" y1="0" x2="350" y2="20" style="stroke: #000; stroke-width: 3;" />
        <line x1="0" y1="10" x2="350" y2="10" style="stroke: #000; stroke-width: 3;" />
    </g>

    <text x="160" y="87">size</text>
    <text x="270" y="115">capacity</text>
</svg>
